PathFileType	4	(X/Y/Z)	HSS_squat4.trc
DataRate	CameraRate	NumFrames	NumMarkers	Units	OrigDataRate	OrigDataStartFrame	OrigNumFrames
120.0	120.0	8	44	mm	120.0	487	973
Frame#	Time		R.Shoulder		Offset		L.Shoulder		R.Elbow		R.Wrist.Radial		R.Wrist		R.Hand		L.Elbow		L.Wrist.Radial		L.Wrist		L.Hand		R.Hip		V.Sacral		L.PSIS		L.Hip		R.Thigh.Upper		R.Thigh.Front		R.Thigh.Rear		X.Shell.Lower.Thigh.Right		R.Knee.Lateral		R.Shank.Upper		R.Shank.Front		R.Shank.Rear		X.Shell.Lower.Shank.Right		R.Ankle.Lateral		R.Heel		R.Toe		L.Thigh.Upper		L.Thigh.Front		L.Thigh.Rear		X.Shell.Lower.Thigh.Left		L.Knee.Lateral		L.Shank.Upper		L.Shank.Front		L.Shank.Rear		X.Shell.Lower.Shank.Left		L.Ankle.Lateral		L.Heel		L.Toe		R.Troc		L.Troc		R.PSIS		L.ASIS		R.ASIS
			X1	Y1	Z1	X2	Y2	Z2	X3	Y3	Z3	X4	Y4	Z4	X5	Y5	Z5	X6	Y6	Z6	X7	Y7	Z7	X8	Y8	Z8	X9	Y9	Z9	X10	Y10	Z10	X11	Y11	Z11	X12	Y12	Z12	X13	Y13	Z13	X14	Y14	Z14	X15	Y15	Z15	X16	Y16	Z16	X17	Y17	Z17	X18	Y18	Z18	X19	Y19	Z19	X20	Y20	Z20	X21	Y21	Z21	X22	Y22	Z22	X23	Y23	Z23	X24	Y24	Z24	X25	Y25	Z25	X26	Y26	Z26	X27	Y27	Z27	X28	Y28	Z28	X29	Y29	Z29	X30	Y30	Z30	X31	Y31	Z31	X32	Y32	Z32	X33	Y33	Z33	X34	Y34	Z34	X35	Y35	Z35	X36	Y36	Z36	X37	Y37	Z37	X38	Y38	Z38	X39	Y39	Z39	X40	Y40	Z40	X41	Y41	Z41	X42	Y42	Z42	X43	Y43	Z43	X44	Y44	Z44

487	4.05000	133.85738	1423.71289	-136.09485	-151.15735	1333.48242	-24.41235	-195.64874	1437.73840	-145.31435	287.87527	1260.41882	-410.43759	67.78698	1317.02173	-557.26337	112.84494	1356.72498	-598.46246	29.77162	1359.09583	-631.58990	-356.82040	1300.44348	-430.06921	-125.16290	1321.29651	-564.50055	-166.12761	1367.08057	-602.18195	-81.95659	1352.98401	-629.76556	107.09188	971.00720	-84.32829	-45.38520	992.99005	40.89968	-85.18198	998.45496	30.21632	-188.52184	969.30859	-93.65926	190.67572	685.37018	-175.07530	181.93803	665.24438	-223.02806	204.13661	641.85638	-170.15273	192.99411	623.15137	-211.11066	184.09967	501.69464	-201.43823	239.03642	364.39191	-173.16154	219.82454	314.52585	-191.75412	227.13118	334.76215	-134.38196	222.56161	290.00681	-149.15213	189.92859	72.02087	-87.28886	140.50679	33.58701	-42.05993	202.61650	33.38204	-235.92043	-247.05611	684.88330	-202.88028	-229.83083	649.38086	-245.15648	-264.37332	640.34253	-193.15791	-255.98969	621.21185	-232.92299	-235.68729	487.84308	-220.80696	-284.85754	305.10040	-153.40933	-270.31696	274.04092	-174.80450	-272.16263	274.62173	-114.09309	-276.65396	239.15675	-128.73112	-242.11145	74.05706	-100.68436	-195.86018	35.51229	-42.59656	-242.85815	32.22924	-240.93616	150.20639	862.16553	-74.79508	-230.60498	865.72144	-79.93557	-1.46347	998.70270	33.62773	-145.97585	917.90332	-139.50505	75.37390	920.23865	-128.29318
488	4.05833	133.65262	1420.91870	-137.31158	-151.44099	1331.22693	-25.19480	-195.61232	1435.05762	-146.60324	287.86072	1257.99390	-411.29388	67.95063	1314.44373	-558.32910	113.00610	1354.16174	-599.51666	30.00555	1356.45667	-632.67670	-356.66132	1297.93591	-431.35968	-124.95379	1318.87793	-565.59509	-165.82205	1364.51379	-603.50873	-81.71587	1350.34937	-631.05438	107.10190	968.66791	-83.12667	-45.44371	991.13782	42.04656	-85.29163	996.49329	31.45960	-188.54646	966.72089	-92.38030	191.04965	684.69141	-174.66731	182.46309	664.95300	-222.77705	204.40526	640.97400	-169.99588	193.61121	622.74915	-211.13266	184.65907	501.02667	-202.62451	239.35052	364.03693	-174.29361	220.14883	314.04941	-192.67824	227.45624	334.53226	-135.41928	222.77394	289.71057	-149.92336	189.93965	72.00563	-87.31485	140.44446	33.57601	-42.03857	202.64427	33.42694	-235.84216	-247.16232	684.25647	-202.75171	-230.04152	649.07245	-245.24779	-264.57187	639.62329	-193.28534	-256.15790	620.76135	-233.17064	-235.72586	487.27841	-222.13705	-284.84320	304.84119	-154.39078	-270.33932	273.85751	-175.52547	-272.20483	274.49506	-114.85696	-276.67017	238.97493	-129.29041	-242.13000	74.02267	-100.71987	-195.83803	35.51104	-42.58844	-242.86391	32.25834	-240.95146	150.30139	860.97101	-73.31543	-230.50491	863.95953	-78.49706	-1.50368	996.80981	34.70578	-146.04289	915.22626	-138.07990	75.44115	917.74854	-126.68108
489	4.06667	133.55984	1418.25500	-138.23778	-151.66878	1328.94116	-26.15494	-195.53801	1432.29309	-147.99849	287.94577	1255.45166	-412.09705	68.14265	1311.90796	-559.33966	113.19440	1351.55530	-600.59930	30.24796	1353.81580	-633.71393	-356.50272	1295.33752	-432.57162	-124.38718	1316.19910	-566.82727	-165.67267	1362.05798	-604.70050	-81.43382	1347.76733	-632.19403	107.12829	966.27826	-81.73720	-45.61720	988.95459	43.34604	-85.31178	994.40326	32.51622	-188.46529	964.18713	-91.37576	191.46533	683.84479	-174.16266	182.97566	664.68689	-222.52202	204.99086	640.24335	-169.94380	194.10593	622.34070	-211.36536	185.19395	500.43958	-203.91890	239.71672	363.60034	-175.37598	220.41685	313.63919	-193.53047	227.65906	334.28195	-136.34909	222.96788	289.42642	-150.79871	189.93896	71.99367	-87.33904	140.40073	33.56617	-42.04389	202.71149	33.49050	-235.77444	-247.29004	683.46228	-202.45319	-230.26645	648.76825	-245.33060	-264.75922	638.78650	-193.39226	-256.42245	620.39679	-233.48308	-235.91458	486.66486	-223.66153	-284.88824	304.51273	-155.41568	-270.42950	273.55197	-176.56548	-272.13617	274.34286	-115.76058	-276.65210	238.79753	-130.09792	-242.10649	74.01035	-100.77694	-195.84048	35.58464	-42.36901	-242.86510	32.24557	-240.93117	150.08452	859.55872	-71.52278	-230.39661	862.22418	-77.03416	-1.59793	994.69269	35.94711	-145.87576	912.58514	-136.68791	75.54353	915.18860	-125.16926
490	4.07500	133.34863	1415.55188	-139.02908	-151.86615	1326.61572	-27.00183	-195.42433	1429.55371	-149.17088	288.00656	1252.91125	-412.86896	68.29733	1309.16077	-560.35583	113.37744	1348.89001	-601.50549	30.50444	1351.08899	-634.75287	-356.20859	1292.73340	-433.92969	-124.87298	1313.33228	-568.06580	-165.31238	1359.40320	-605.84973	-81.14510	1345.03955	-633.28876	107.12445	963.84937	-80.42924	-45.66903	986.84814	44.43108	-85.35685	992.27753	33.71843	-188.37004	961.61841	-90.24148	191.81172	683.03241	-173.76640	183.45486	664.27405	-222.33734	205.36336	639.42072	-169.77338	194.71346	621.85931	-211.61081	185.59750	499.82260	-205.19016	240.09920	363.13409	-176.31300	220.83606	313.14957	-194.40840	227.89511	333.99878	-137.50137	223.16275	289.13782	-151.64034	189.94167	71.99284	-87.40022	140.34494	33.57512	-42.04732	202.75056	33.50051	-235.67235	-247.43999	682.76324	-202.19591	-230.36279	648.36755	-245.29860	-264.91943	638.04944	-193.49767	-256.65851	620.01752	-233.95586	-236.08345	486.00510	-225.05138	-284.98648	304.27231	-156.41077	-270.47449	273.10141	-177.39444	-272.23486	274.26953	-116.62507	-276.69119	238.62294	-130.96445	-242.08153	73.96214	-100.90074	-195.82520	35.63033	-42.42616	-242.86177	32.24785	-240.97205	150.28862	858.39941	-70.00938	-230.32841	860.46930	-75.62618	-1.65758	992.78040	37.15281	-145.71838	909.83630	-135.39546	75.65293	912.66107	-123.71883
491	4.08333	133.21375	1412.65991	-140.19771	-152.10950	1324.22156	-27.90316	-195.41008	1426.66626	-150.40665	288.13403	1250.27063	-413.60327	68.10095	1306.73657	-561.59259	113.08394	1346.21692	-603.08673	30.70253	1348.31348	-635.83746	-355.97656	1290.02405	-435.21130	-123.89320	1310.74890	-569.24756	-164.96135	1356.64856	-607.02344	-80.74869	1342.53906	-634.44543	107.22868	961.45184	-79.09703	-45.72118	984.53156	45.71000	-85.40625	990.04315	34.90897	-188.37808	959.00482	-89.27786	192.20419	682.18243	-173.46880	184.11780	663.83508	-222.17317	205.63266	638.49792	-169.85126	195.31607	621.43652	-211.75662	186.15379	499.19952	-206.49228	240.34764	362.76169	-177.60745	221.07655	312.64572	-195.41432	228.19867	333.74698	-138.47153	223.41861	288.80023	-152.56720	189.93776	71.96339	-87.47581	140.29941	33.60472	-42.09357	202.79739	33.52525	-235.67348	-247.54469	682.00873	-202.03961	-230.52603	648.00696	-245.50705	-265.02109	637.12854	-193.58347	-256.91113	619.52527	-234.40135	-236.24776	485.41119	-226.60355	-284.97351	303.96390	-157.57578	-270.51758	272.70386	-178.32176	-272.37033	274.04916	-117.59157	-276.73569	238.41354	-131.64026	-242.08583	73.92184	-101.02101	-195.78738	35.64148	-42.49446	-242.85689	32.25230	-240.98976	150.30608	856.97565	-68.46525	-230.12453	858.65839	-74.30808	-1.75854	990.62830	38.42191	-145.62146	907.15332	-134.05077	75.73824	910.07843	-122.29773
492	4.09167	132.95486	1410.05640	-141.14786	-152.34122	1321.69617	-28.78790	-195.33582	1423.76892	-151.76128	288.25293	1247.61951	-414.42322	68.30200	1303.89905	-562.65363	113.31119	1343.44299	-604.05865	31.04467	1345.48120	-636.90454	-355.81870	1287.20178	-436.45941	-124.12667	1307.73792	-570.40881	-164.78310	1353.82336	-608.20660	-80.36998	1339.59949	-635.74609	107.17137	959.01648	-77.92968	-45.71996	982.38385	46.98460	-85.33871	987.78534	36.04414	-188.22897	956.31256	-88.02885	192.59738	681.28717	-173.13037	184.69525	663.42822	-221.95239	206.19685	637.59961	-169.98184	195.78912	620.80969	-211.92264	186.53616	498.57272	-207.75607	240.74510	362.25467	-178.72836	221.36272	312.12720	-196.51355	228.46167	333.43759	-139.52657	223.60509	288.43021	-153.47018	189.91461	71.94917	-87.54721	140.23465	33.61941	-42.13268	202.87123	33.52161	-235.65863	-247.63423	681.28064	-201.88072	-230.62599	647.52399	-245.62105	-265.15915	636.15356	-194.17487	-256.95023	619.08649	-234.70335	-236.33643	484.68414	-228.15427	-285.04712	303.58316	-158.70113	-270.55405	272.30878	-179.34924	-272.45346	273.91159	-118.56387	-276.75116	238.12434	-132.41766	-242.04199	73.86943	-101.10678	-195.78255	35.66129	-42.54240	-242.83781	32.22829	-241.01895	150.48785	855.35089	-66.91532	-229.96318	856.92493	-72.96338	-1.66936	988.31726	39.55706	-145.53249	904.44379	-132.76018	75.80138	907.58795	-120.81166
493	4.10000	132.77171	1407.09021	-142.00801	-152.49287	1319.16992	-29.72231	-195.21983	1420.76111	-152.95738	288.37329	1244.88501	-415.15952	68.57014	1301.22766	-563.39728	113.61542	1340.51782	-605.00421	31.27979	1342.62048	-637.76703	-355.61945	1284.31702	-437.72629	-122.96214	1304.93152	-571.38745	-164.33263	1351.01196	-609.50415	-80.12967	1336.84521	-636.78351	107.30290	956.54498	-76.53041	-45.77522	979.97925	48.21742	-85.34216	985.41888	37.15229	-188.08379	953.63623	-86.91415	193.04193	680.31970	-172.80692	185.19252	662.91492	-221.92511	206.77811	636.64691	-170.03047	196.29143	620.28296	-212.10043	187.12071	497.77267	-209.13011	241.02095	361.81387	-180.02786	221.61743	311.63104	-197.50433	228.74074	333.08957	-140.75829	223.93132	288.12524	-154.57652	189.89008	71.93264	-87.62531	140.17377	33.65164	-42.16980	202.94176	33.52602	-235.64838	-247.71835	680.38531	-201.51480	-230.82256	647.14270	-245.68098	-265.19968	635.28943	-194.34988	-257.07834	618.55957	-235.02667	-236.44844	483.96988	-229.48128	-285.10599	303.24591	-159.70279	-270.63110	271.84692	-180.24306	-272.39603	273.77151	-119.50683	-276.82352	237.91312	-133.34164	-241.97092	73.81145	-101.22219	-195.75012	35.68811	-42.57584	-242.89041	32.23465	-241.05037	150.40166	854.00281	-65.34554	-229.73300	855.12842	-71.53259	-1.73922	986.10120	40.88514	-145.42328	901.62445	-131.52061	75.91963	904.98010	-119.44016
494	4.10833	132.65306	1404.19019	-142.99919	-152.71806	1316.65320	-30.58605	-195.10928	1417.77588	-154.25632	288.53131	1242.14673	-415.94708	68.93414	1298.11829	-564.54980	113.96100	1337.68762	-605.91138	31.72269	1339.60779	-638.89429	-355.32861	1281.30103	-439.13333	-123.91795	1302.02295	-572.67395	-164.05125	1348.10669	-610.59949	-79.81916	1333.83704	-637.99109	107.31939	953.98999	-75.35017	-45.67395	977.57123	49.31591	-85.26994	983.03394	38.35374	-187.94771	950.84662	-85.91168	193.46078	679.37817	-172.47299	185.67014	662.42578	-221.81143	207.12349	635.69653	-170.12741	196.88866	619.69666	-212.40045	187.58517	497.10654	-210.39072	241.48122	361.32343	-181.32231	221.79872	311.09570	-198.68057	229.07779	332.76709	-141.88388	224.14684	287.74347	-155.42570	189.80252	71.92287	-87.98596	140.12201	33.68028	-42.20247	203.00912	33.53795	-235.65082	-247.77042	679.65265	-201.37083	-230.98671	646.75421	-245.80481	-265.27393	634.44714	-194.52728	-257.17841	618.02094	-235.34035	-236.65640	483.39133	-231.18138	-285.16190	302.90939	-160.85313	-270.65451	271.51743	-181.24989	-272.56696	273.56348	-120.43890	-276.93723	237.70576	-134.15134	-241.96078	73.75471	-101.31910	-195.72217	35.73583	-42.64952	-242.86679	32.23272	-241.07712	150.62570	852.52216	-63.77985	-229.52435	853.15527	-70.28616	-1.70376	983.77490	42.16773	-145.37120	898.82056	-130.13184	76.01413	902.36444	-118.08058
